<svg width="3000" height="760" viewBox="0 0 3000 760" fill="none" xmlns="http://www.w3.org/2000/svg">
<path d="M1388.53 429.196C1370.73 415.625 1356.32 398.661 1346.99 379.152C1335.97 357.098 1330.88 332.5 1331.73 307.902V1.69653H1404.63V308.75C1404.63 335.893 1414.81 357.946 1433.46 371.518C1475.84 401.205 1532.64 401.205 1575.02 371.518C1593.67 357.098 1603 335.893 1603 308.75V1.69653H1676.75V308.75C1676.75 333.348 1671.66 357.946 1661.49 380C1651.31 399.509 1636.9 416.473 1619.95 430.045C1551.29 479.241 1458.04 478.393 1389.38 430.045L1388.53 429.196Z" fill="#FF5811"/>
<path d="M2238.77 447.857C2152.3 411.383 2096.35 326.562 2096.35 233.259C2096.35 201.875 2102.29 171.339 2114.16 142.5C2126.87 115.357 2143.83 89.9104 2164.17 68.705C2185.36 47.4997 2210.79 30.5354 2237.92 19.5086C2266.74 7.63364 2297.26 0.847913 2328.62 1.69613C2359.99 1.69613 2390.51 7.63364 2419.33 19.5086C2475.28 43.2586 2519.36 87.3657 2543.09 143.348C2554.96 172.187 2560.89 203.571 2561.74 234.107C2561.74 265.491 2555.81 296.026 2543.09 324.866C2531.22 352.857 2514.27 377.455 2493.92 398.66C2426.96 465.669 2326.08 485.178 2237.92 448.705L2238.77 447.857ZM2215.88 120.446C2153.15 181.517 2152.3 281.607 2214.18 344.375L2215.88 346.071C2278.61 408.839 2380.33 408.839 2443.06 346.071C2505.79 284.151 2506.64 184.062 2444.76 121.294L2443.06 119.598C2380.33 56.83 2278.61 56.83 2215.03 119.598L2215.88 120.446Z" fill="#FF5811"/>
<path d="M1241.03 324.018C1252.9 295.178 1258.83 264.643 1259.68 233.259C1259.68 201.875 1253.74 171.339 1241.03 141.652C1217.29 85.6696 1173.21 41.5625 1117.26 17.8125C1088.44 5.9375 1057.08 0 1026.56 0C995.197 0 964.679 5.9375 935.858 17.8125C907.884 29.6875 883.301 46.6518 862.108 67.0089C840.916 88.2142 823.962 113.661 812.094 140.804C800.226 169.643 794.292 201.027 794.292 231.562C794.292 360.491 898.559 464.821 1026.56 464.821C1057.93 464.821 1088.44 458.884 1117.26 446.161C1121.5 444.464 1125.74 441.919 1129.98 439.375L1160.5 480.089L1218.14 435.982L1188.47 397.812L1190.17 396.116C1211.36 374.911 1228.31 350.312 1239.33 322.321L1241.03 324.018ZM1114.72 301.116L1057.08 346.071L1085.05 383.393C1025.71 406.294 957.898 392.723 912.97 347.768C850.24 286.696 849.393 186.607 911.275 123.839L912.97 122.143C975.7 59.375 1077.42 59.375 1140.15 122.143C1201.19 183.214 1203.73 281.607 1144.39 344.375L1114.72 302.812V301.116Z" fill="#FF5811"/>
<path d="M640.859 393.571C598.474 393.571 556.937 376.607 527.268 346.92C464.538 285.848 463.69 186.607 524.725 123.839H525.572C525.572 122.991 527.268 121.295 527.268 121.295C584.064 63.6162 675.615 58.5269 739.192 107.723V24.5983C735.801 22.9019 732.41 21.2055 729.867 20.3572C701.046 8.48225 669.681 2.54475 639.164 1.69653C545.917 1.69653 461.147 57.6787 424.696 143.348C412.829 172.188 406.895 203.571 406.047 234.107C406.047 363.036 510.314 467.366 638.316 467.366C669.681 467.366 700.198 461.429 729.02 449.554C732.41 447.857 735.801 446.161 738.344 445.313V360.491C710.37 382.545 675.615 394.42 640.011 394.42L640.859 393.571Z" fill="#FF5811"/>
<path d="M1832.72 193.393H2003.11V265.491H1832.72V396.964H2039.56V469.911H1759.82V3.39307H2039.56V76.3395H1832.72V193.393Z" fill="#FF5811"/>
<path d="M2706.7 176.428V467.365H2633.79V1.69586L2926.25 292.633V0.847656H3000V466.517L2706.7 175.58V176.428Z" fill="#FF5811"/>
<path d="M325.516 467.366H405.199L202.6 1.69653L0 467.366H80.5312L123.764 366.429H281.435L324.668 467.366H325.516ZM155.129 293.482L202.6 183.214L250.071 293.482H155.129Z" fill="#FF5811"/>
<path fill-rule="evenodd" clip-rule="evenodd" d="M2897.01 621.102C2897.01 592.498 2920.47 572.121 2947.63 572.121C2974.8 572.121 2998.06 592.081 2998.06 621.102C2998.06 631.391 2994.97 640.651 2990.65 648.68L2951.54 718.855H2920.05L2951.54 666.995L2950.72 666.175C2948.66 667.204 2945.16 667.823 2942.08 667.823C2920.88 667.823 2897.01 651.977 2897.01 621.102ZM2924.59 621.102C2924.59 634.069 2934.05 644.563 2947.64 644.563C2961.23 644.563 2970.69 634.274 2970.69 621.102C2970.69 607.93 2961.22 597.846 2947.64 597.846C2934.06 597.846 2924.59 608.135 2924.59 621.102ZM2649.19 610.617H2675.94V718.864H2649.19V610.617ZM2763.27 610.617L2737.75 686.967H2736.1L2710.38 610.617H2682.39L2721.91 718.872H2752.16L2791.88 610.617H2763.27ZM2786.65 665.359C2786.65 631.195 2809.49 607.939 2841.18 607.939C2875.97 607.939 2894.9 633.663 2894.9 664.124V672.56H2812.58C2813.4 689.025 2824.72 700.138 2842.01 700.138C2855.18 700.138 2865.26 693.966 2868.97 685.113H2893.87C2888.52 707.131 2869.17 721.545 2841.18 721.545C2809.28 721.545 2786.65 697.673 2786.65 665.359ZM2841.19 629.345C2825.55 629.345 2814.64 640.044 2812.99 653.63H2869.38C2868.14 639.022 2856.83 629.345 2841.19 629.345ZM2554.22 718.872H2581.6V660.422H2637.17V636.961H2581.6V598.475H2642.52V574.805H2554.22V718.872ZM2980.71 702.16C2975.14 702.16 2971.47 706.333 2971.47 711.513H2971.47C2971.47 716.693 2975.05 720.821 2980.8 720.821C2986.55 720.821 2990.13 716.648 2990.13 711.468C2990.13 706.288 2986.28 702.16 2980.71 702.16ZM2980.71 703.719C2985.6 703.719 2988.5 707.068 2988.5 711.468H2988.5C2988.5 715.913 2985.6 719.307 2980.8 719.307C2976 719.307 2973.1 715.913 2973.1 711.513C2973.1 707.112 2975.82 703.719 2980.71 703.719ZM2981.3 706.56H2977.63L2977.63 706.557V716.462H2979.3V712.885H2981.48L2983.25 716.462H2985.01L2982.98 712.52C2983.93 712.154 2984.7 711.099 2984.7 709.678C2984.7 707.981 2983.43 706.56 2981.3 706.56ZM2982.93 709.723C2982.93 710.64 2982.3 711.42 2981.16 711.42H2979.31V708.026H2981.16C2982.25 708.026 2982.93 708.761 2982.93 709.723ZM2337.1 702.322H2336.25V717.59H2323.54V581.028H2337.1V638.706H2337.95C2340.49 633.617 2350.66 620.894 2368.47 620.894C2386.27 620.894 2410.85 631.168 2410.85 670.938C2410.85 699.778 2393.05 720.983 2367.62 720.983C2345.99 720.983 2340.92 711.17 2338.32 706.147C2337.86 705.262 2337.48 704.527 2337.1 704.019V702.322ZM2397.29 670.09C2397.29 648.885 2384.57 633.617 2366.77 633.617C2348.97 633.617 2336.25 647.188 2336.25 670.09C2336.25 692.992 2347.27 706.563 2366.77 706.563C2386.27 706.563 2397.29 692.144 2397.29 670.09ZM2432.04 746.429H2425.26V760H2434.59C2449 760 2455.78 752.366 2460.02 739.643L2501.55 622.59H2486.3L2459.17 703.17H2458.32L2431.2 622.59H2416.78L2452.39 722.679L2448.15 734.554C2445.61 742.188 2440.52 746.429 2432.04 746.429Z" fill="#333E48"/>
</svg>
